<?xml version="1.0" encoding="UTF-8"?>
<svg version="1.1" xmlns="http://www.w3.org/2000/svg" width="500" height="500">
<path d="M0 0 C1.22669151 -0.00855011 1.22669151 -0.00855011 2.47816467 -0.01727295 C4.20523811 -0.02667758 5.93232912 -0.03323877 7.65942383 -0.03710938 C10.24659422 -0.04673158 12.83294017 -0.07776319 15.41992188 -0.109375 C37.66823462 -0.25072844 56.44080214 4.24874703 73.53515625 19.17578125 C75.52733535 21.40410227 76.40964262 23.38419863 77.34765625 26.203125 C78.23324219 26.04328125 79.11882812 25.8834375 80.03125 25.71875 C95.20514181 23.57009949 115.50075409 22.67407654 129.34765625 30.203125 C128.7566086 35.04971577 127.36821468 38.81060667 125.34765625 43.203125 C123.24309438 42.91432381 121.13902974 42.62189896 119.03515625 42.328125 C117.74738281 42.14894531 116.45960938 41.96976563 115.1328125 41.78515625 C112.03214672 41.30837689 109.03004334 40.70178668 105.97265625 40.015625 C98.79178057 38.62681996 91.57283259 39.53228052 84.34765625 40.203125 C84.52683594 41.1003125 84.70601563 41.9975 84.890625 42.921875 C87.44092852 57.88365566 85.13165972 72.48117757 76.8671875 85.54296875 C71.22910229 93.32613523 63.99472124 99.87959251 55.34765625 104.203125 C55.53181057 107.14404087 55.53181057 107.14404087 56.34765625 110.203125 C58.20258513 111.26892213 58.20258513 111.26892213 60.34765625 112.203125 C61.55116647 113.14127328 62.73808754 114.10097917 63.91015625 115.078125 C74.35198183 123.06075427 86.54683801 123.40086889 99.16015625 123.453125 C101.00963867 123.4840625 101.00963867 123.4840625 102.89648438 123.515625 C109.26380764 123.54282126 114.60354242 123.31491027 120.48706055 120.75292969 C122.81646259 120.06459307 124.10155207 120.32975696 126.34765625 121.203125 C127.39453125 123.12890625 127.39453125 123.12890625 128.09765625 125.515625 C128.46117187 126.68544922 128.46117187 126.68544922 128.83203125 127.87890625 C129.34765625 130.203125 129.34765625 130.203125 129.34765625 134.203125 C118.98375306 136.90075113 109.10577066 138.91170881 98.34765625 139.203125 C97.12304688 139.2546875 95.8984375 139.30625 94.63671875 139.359375 C85.79816647 139.57806083 77.87493047 138.49239323 69.34765625 136.203125 C68.34089844 135.95949219 67.33414063 135.71585938 66.296875 135.46484375 C53.83817993 131.98300976 43.04226378 123.49216792 35.34765625 113.203125 C35.01765625 112.543125 34.68765625 111.883125 34.34765625 111.203125 C33.77039795 111.2738623 33.19313965 111.34459961 32.59838867 111.41748047 C24.11258685 112.33031178 15.67246378 112.35540038 7.14916992 112.33349609 C4.65472399 112.32811328 2.16045627 112.33348225 -0.33398438 112.33984375 C-1.94401081 112.33918323 -3.55403713 112.33790262 -5.1640625 112.3359375 C-6.26436043 112.33897385 -6.26436043 112.33897385 -7.3868866 112.34207153 C-20.57238007 112.28308868 -20.57238007 112.28308868 -22.65234375 110.203125 C-22.7477747 108.81168811 -22.7742295 107.41544133 -22.77259827 106.02073669 C-22.77397293 105.11904755 -22.7753476 104.2173584 -22.77676392 103.28834534 C-22.77316864 102.29141159 -22.76957336 101.29447784 -22.76586914 100.26733398 C-22.76601517 99.22355591 -22.76616119 98.17977783 -22.76631165 97.10437012 C-22.76561201 93.63596557 -22.75781728 90.16761397 -22.75 86.69921875 C-22.748136 84.30168182 -22.74671201 81.9041445 -22.74571228 79.50660706 C-22.74188569 73.18216916 -22.73205421 66.85775406 -22.7210083 60.5333252 C-22.7107972 54.08537098 -22.70621531 47.63741309 -22.70117188 41.18945312 C-22.69043207 28.527334 -22.67354494 15.86523071 -22.65234375 3.203125 C-15.0089769 0.96726025 -7.91898685 0.04389238 0 0 Z M-3.65234375 15.203125 C-3.65234375 42.263125 -3.65234375 69.323125 -3.65234375 97.203125 C1.62871993 99.31555047 5.06102368 99.53728632 10.59765625 99.515625 C11.40589844 99.53173828 12.21414062 99.54785156 13.046875 99.56445312 C18.97116057 99.56919255 23.85192183 98.38408988 29.34765625 96.203125 C29.32670898 95.54417236 29.30576172 94.88521973 29.28417969 94.20629883 C28.76399901 75.35304151 29.88615398 61.37644614 41.72265625 45.953125 C47.17127792 40.24504516 53.22738025 36.50896743 60.34765625 33.203125 C54.85545667 23.41268227 45.43180884 18.49977519 35.0703125 15.140625 C31.16647599 14.15749723 27.41323459 13.71687879 23.41015625 13.515625 C22.31948853 13.45592529 22.31948853 13.45592529 21.20678711 13.39501953 C8.41107123 12.4731522 8.41107123 12.4731522 -3.65234375 15.203125 Z M60.03515625 51.203125 C52.6448702 58.83924177 47.95179414 67.55321526 48.08398438 78.3046875 C48.10912109 79.09617187 48.13425781 79.88765625 48.16015625 80.703125 C48.17369141 81.52554688 48.18722656 82.34796875 48.20117188 83.1953125 C48.23610609 85.19820721 48.28989568 87.20075856 48.34765625 89.203125 C56.04901092 84.35889773 60.16830528 78.62840507 63.34765625 70.203125 C63.87746094 69.13578125 63.87746094 69.13578125 64.41796875 68.046875 C65.70190375 64.11954443 65.56201984 60.49103909 65.47265625 56.390625 C65.46363281 55.60236328 65.45460938 54.81410156 65.4453125 54.00195312 C65.42188129 52.06887834 65.38601463 50.1359612 65.34765625 48.203125 C62.57969878 48.203125 61.97650263 49.27469223 60.03515625 51.203125 Z " fill="#040404" transform="translate(200.65234375,176.796875)"/>
<path d="M0 0 C1.42534844 -0.00391162 1.42534844 -0.00391162 2.87949181 -0.00790226 C3.93063982 -0.00567154 4.98178783 -0.00344082 6.06478882 -0.0011425 C7.17581278 -0.00270249 8.28683674 -0.00426248 9.43152809 -0.00586975 C13.17957484 -0.00987992 16.92758156 -0.00669002 20.67562866 -0.00355339 C23.35244873 -0.00490742 26.02926598 -0.00665099 28.70608521 -0.00886345 C35.23704371 -0.01331922 41.76799075 -0.01234553 48.29894972 -0.00945081 C53.60495059 -0.00719602 58.91094825 -0.00688458 64.21694946 -0.00797462 C64.97099929 -0.00812786 65.72504913 -0.00828109 66.50194895 -0.00843897 C68.03359842 -0.00875868 69.56524789 -0.00908289 71.09689736 -0.00941156 C85.47243198 -0.01226579 99.84796024 -0.00898022 114.22349381 -0.00361119 C126.56887008 0.00085679 138.91423694 0.00008085 151.25961304 -0.00452995 C165.58233228 -0.00987672 179.90504594 -0.0119911 194.22776604 -0.00891769 C195.75390498 -0.00859913 197.28004392 -0.00828476 198.80618286 -0.00797462 C199.55714945 -0.00782035 200.30811605 -0.00766607 201.0818392 -0.00750712 C206.38387601 -0.00664228 211.68590929 -0.00810415 216.98794556 -0.01045418 C223.44589256 -0.01325351 229.90382741 -0.01251108 236.36177301 -0.00717343 C239.65917658 -0.00453823 242.95655556 -0.00406309 246.25395966 -0.00682259 C249.82210819 -0.00953439 253.39019872 -0.00615254 256.95834351 -0.0011425 C258.53506553 -0.00448858 258.53506553 -0.00448858 260.14364052 -0.00790226 C261.09387281 -0.00529452 262.04410511 -0.00268677 263.02313232 0 C263.84756018 0.00016235 264.67198803 0.0003247 265.52139854 0.00049198 C267.51156616 0.12584114 267.51156616 0.12584114 269.51156616 1.12584114 C269.53489185 27.5764815 269.55254371 54.02712033 269.56337833 80.4777689 C269.56854199 92.75833097 269.57558602 105.03888667 269.58700562 117.31944466 C269.59695032 128.01898406 269.60341908 138.71851885 269.60565466 149.41806275 C269.60696213 155.08716056 269.61005027 160.75624516 269.61729622 166.42533875 C269.62405307 171.75464426 269.62618381 177.08393104 269.62467384 182.41324043 C269.62495032 184.37530367 269.62695742 186.33736749 269.63077164 188.29942703 C269.63570366 190.9659487 269.63456628 193.63239845 269.63182068 196.29892159 C269.63618994 197.47934608 269.63618994 197.47934608 269.64064747 198.68361753 C269.62568737 204.01171993 269.62568737 204.01171993 268.51156616 205.12584114 C267.04774535 205.22344444 265.57922323 205.25139581 264.1121521 205.25168228 C263.15632736 205.25429003 262.20050262 205.25689778 261.2157135 205.25958455 C260.15318863 205.25735382 259.09066376 205.2551231 257.99594116 205.25282478 C256.87689896 205.25438477 255.75785675 205.25594476 254.60490417 205.25755203 C250.82377844 205.26156731 247.04269226 205.25837035 243.26156616 205.25523567 C240.5635669 205.25658948 237.86557045 205.25833287 235.16757202 205.26054573 C228.58133239 205.26500417 221.99510411 205.26402663 215.40886402 205.26113309 C210.05849425 205.25887935 204.70812768 205.25856641 199.35775757 205.25965691 C198.21772042 205.25988676 198.21772042 205.25988676 197.05465221 205.26012125 C195.51092148 205.26044096 193.96719074 205.26076517 192.42346001 205.26109384 C177.93064445 205.26394885 163.4378352 205.26066128 148.94502068 205.25529347 C136.49584517 205.25082542 124.046679 205.25160134 111.59750366 205.25621223 C97.15833889 205.26155763 82.71917966 205.26367416 68.28001404 205.26059997 C66.74180094 205.2602814 65.20358785 205.25996703 63.66537476 205.25965691 C62.90844424 205.25950263 62.15151373 205.25934836 61.37164593 205.2591894 C56.02456721 205.25832414 50.67749199 205.25978732 45.33041382 205.26213646 C38.81861524 205.26493427 32.30682873 205.2641966 25.79503155 205.25885572 C22.46940516 205.25621844 19.1438032 205.25574782 15.81817627 205.25850487 C12.22116075 205.26121318 8.62420295 205.25783917 5.02719116 205.25282478 C3.96466629 205.25505551 2.90214142 205.25728623 1.80741882 205.25958455 C0.85159409 205.2569768 -0.10423065 205.25436905 -1.08901978 205.25168228 C-1.92044495 205.25151993 -2.75187012 205.25135758 -3.60848999 205.2511903 C-5.48843384 205.12584114 -5.48843384 205.12584114 -6.48843384 204.12584114 C-6.58623426 201.5082138 -6.61837895 198.91698807 -6.60868835 196.29892159 C-6.60954278 195.46910603 -6.6103972 194.63929048 -6.61127752 193.784329 C-6.61293487 190.98204795 -6.60740681 188.17982573 -6.60195923 185.37755013 C-6.60167739 183.37742807 -6.60183503 181.37730591 -6.60240173 179.37718391 C-6.60268982 173.92906079 -6.59679129 168.48095948 -6.58982778 163.03284144 C-6.5835961 157.34599272 -6.58299059 151.65914356 -6.58180237 145.97229195 C-6.5786885 135.19524155 -6.57047437 124.41820125 -6.56045288 113.6411553 C-6.54929346 101.37534507 -6.54378172 89.10953436 -6.53875744 76.84372032 C-6.5282918 51.60442166 -6.51069129 26.36513196 -6.48843384 1.12584114 C-4.10532496 -0.0657133 -2.65988134 0.0005238 0 0 Z M-2.48843384 5.12584114 C-2.48843384 69.47584114 -2.48843384 133.82584114 -2.48843384 200.12584114 C85.95156616 200.12584114 174.39156616 200.12584114 265.51156616 200.12584114 C265.51156616 135.77584114 265.51156616 71.42584114 265.51156616 5.12584114 C177.07156616 5.12584114 88.63156616 5.12584114 -2.48843384 5.12584114 Z " fill="#020202" transform="translate(118.48843383789063,144.87415885925293)"/>
</svg>
